ply
format ascii 1.0
comment Created by Blender 2.78 (sub 0) - www.blender.org, source file: ''
element vertex 4
property float x
property float y
property float z
property float nx
property float ny
property float nz
element face 1
property list uchar uint vertex_indices
end_header
-1.174875 -0.908051 -0.099739 0.000000 0.000000 1.000000
0.825125 -0.908051 -0.099739 0.000000 0.000000 1.000000
0.825125 1.091949 -0.099739 0.000000 0.000000 1.000000
-1.174875 1.091949 -0.099739 0.000000 0.000000 1.000000
4 0 1 2 3
