ply
format ascii 1.0
comment Created by Blender 2.78 (sub 0) - www.blender.org, source file: ''
element vertex 24
property float x
property float y
property float z
property float nx
property float ny
property float nz
element face 6
property list uchar uint vertex_indices
end_header
-0.386342 -0.367791 -0.396012 -1.000000 -0.000000 0.000000
-0.386342 -0.367791 0.371998 -1.000000 -0.000000 0.000000
-0.386342 0.400219 0.371998 -1.000000 -0.000000 0.000000
-0.386342 0.400219 -0.396012 -1.000000 -0.000000 0.000000
-0.386342 0.400219 -0.396012 0.000000 1.000000 0.000000
-0.386342 0.400219 0.371998 0.000000 1.000000 0.000000
0.381668 0.400219 0.371998 0.000000 1.000000 0.000000
0.381668 0.400219 -0.396012 0.000000 1.000000 0.000000
0.381668 0.400219 -0.396012 1.000000 -0.000000 0.000000
0.381668 0.400219 0.371998 1.000000 -0.000000 0.000000
0.381668 -0.367791 0.371998 1.000000 -0.000000 0.000000
0.381668 -0.367791 -0.396012 1.000000 -0.000000 0.000000
-0.386342 -0.367791 0.371998 -0.000000 -1.000000 0.000000
-0.386342 -0.367791 -0.396012 -0.000000 -1.000000 0.000000
0.381668 -0.367791 -0.396012 -0.000000 -1.000000 0.000000
0.381668 -0.367791 0.371998 -0.000000 -1.000000 0.000000
0.381668 -0.367791 -0.396012 0.000000 -0.000000 -1.000000
-0.386342 -0.367791 -0.396012 0.000000 -0.000000 -1.000000
-0.386342 0.400219 -0.396012 0.000000 -0.000000 -1.000000
0.381668 0.400219 -0.396012 0.000000 -0.000000 -1.000000
0.381668 0.400219 0.371998 0.000000 -0.000000 1.000000
-0.386342 0.400219 0.371998 0.000000 -0.000000 1.000000
-0.386342 -0.367791 0.371998 0.000000 -0.000000 1.000000
0.381668 -0.367791 0.371998 0.000000 -0.000000 1.000000
4 0 1 2 3
4 4 5 6 7
4 8 9 10 11
4 12 13 14 15
4 16 17 18 19
4 20 21 22 23
