ply
format ascii 1.0
comment Created by Blender 2.78 (sub 0) - www.blender.org, source file: ''
element vertex 12
property float x
property float y
property float z
property float nx
property float ny
property float nz
element face 3
property list uchar uint vertex_indices
end_header
-0.594751 -1.127683 -0.645484 -0.814729 0.000000 -0.579841
-2.018147 -1.127683 1.354516 -0.814729 0.000000 -0.579841
-2.018147 0.872317 1.354516 -0.814729 0.000000 -0.579841
-0.594751 0.872317 -0.645484 -0.814729 0.000000 -0.579841
1.405249 0.872317 -0.645484 1.000000 -0.000000 0.000000
1.405249 0.872317 1.354516 1.000000 -0.000000 0.000000
1.405249 -1.127683 1.354516 1.000000 -0.000000 0.000000
1.405249 -1.127683 -0.645484 1.000000 -0.000000 0.000000
1.405249 -1.127683 -0.645484 0.000000 -0.000000 -1.000000
-0.594751 -1.127683 -0.645484 0.000000 -0.000000 -1.000000
-0.594751 0.872317 -0.645484 0.000000 -0.000000 -1.000000
1.405249 0.872317 -0.645484 0.000000 -0.000000 -1.000000
4 0 1 2 3
4 4 5 6 7
4 8 9 10 11
